ply
format ascii 1.0
comment Created by Blender 2.79 (sub 0) - www.blender.org, source file: 'mario.blend'
element vertex 27
property float x
property float y
property float z
element face 46
property list uchar uint vertex_indices
end_header
-0.487876 -0.462402 0.574415
0.267641 -0.465698 0.918752
-0.276110 -0.463574 0.928445
0.520773 -0.465218 0.577953
-0.409582 -0.469166 -0.355597
0.430880 -0.470774 -0.359440
-0.175519 -0.476610 -0.646364
0.160344 -0.474667 -0.672213
0.443014 0.014681 0.386142
-0.416307 -0.055730 0.385006
-0.307814 0.000218 -0.427897
0.334956 -0.003995 -0.429414
-0.016992 0.003790 0.779152
-0.023725 0.031312 -0.621170
0.014121 0.221211 0.300188
0.437420 -0.003551 0.045171
-0.004514 0.589675 0.328716
-0.009806 -0.007177 0.388258
0.273067 -0.004451 -0.510353
0.238096 0.587817 -0.471404
-0.270731 -0.009880 -0.514481
-0.452360 -0.006186 0.038699
-0.246384 0.581857 -0.475150
-0.397956 0.588284 0.019009
0.392911 0.581848 0.024304
-0.009881 0.789457 -0.106853
-0.007663 -0.151071 -0.103873
3 0 1 2
3 0 3 1
3 4 3 0
3 4 5 3
3 6 5 4
3 7 5 6
3 5 8 3
3 4 9 10
3 5 11 8
3 0 9 4
3 2 9 0
3 1 12 2
3 9 2 12
3 8 1 3
3 1 8 12
3 7 11 5
3 13 6 10
3 10 6 4
3 6 13 7
3 11 7 13
3 12 14 9
3 14 10 9
3 14 12 8
3 11 14 8
3 13 14 11
3 14 13 10
3 15 16 17
3 18 19 15
3 20 19 18
3 21 22 20
3 17 16 21
3 21 16 23
3 22 21 23
3 19 20 22
3 15 19 24
3 16 15 24
3 24 19 25
3 21 20 26
3 17 21 26
3 15 17 26
3 18 15 26
3 20 18 26
3 16 24 25
3 23 16 25
3 22 23 25
3 19 22 25
