ply
format ascii 1.0
comment Created by Blender 2.79 (sub 0) - www.blender.org, source file: 'mario.blend'
element vertex 113
property float x
property float y
property float z
element face 190
property list uchar uint vertex_indices
end_header
0.343591 0.527329 0.519695
0.402517 0.152377 0.660240
0.610029 0.092177 0.541946
0.293963 0.340124 0.619618
0.748583 0.229800 0.432419
0.728965 0.377916 0.392027
0.580835 0.536346 0.410875
-0.338531 0.528043 0.519695
-0.398242 0.153216 0.660240
-0.289296 0.340735 0.619618
-0.605920 0.093450 0.541946
-0.724257 0.379438 0.392027
-0.575795 0.537557 0.410875
-0.744185 0.231363 0.432419
0.343591 0.527329 0.519695
-0.338531 0.528043 0.519695
0.293963 0.340124 0.619618
-0.289296 0.340735 0.619618
-0.398242 0.153216 0.660240
0.402517 0.152377 0.660240
0.342950 -0.084845 0.651711
-0.349059 -0.084178 0.641840
-0.605920 0.093450 0.541946
-0.240599 -0.361356 0.603876
-0.734765 -0.213674 0.405324
-0.537160 -0.332002 0.494974
0.243796 -0.361864 0.603876
0.540379 -0.333131 0.494974
0.738230 -0.215217 0.405324
-0.575795 0.537557 0.410875
-0.605126 0.851123 -0.085215
-0.734030 0.487559 0.282667
0.610029 0.092177 0.541946
0.264860 0.871271 0.142061
0.580835 0.536346 0.410875
0.728965 0.377916 0.392027
0.738975 0.495879 0.282611
0.610822 0.849851 -0.085215
0.235385 1.047206 -0.214852
-0.259080 0.871820 0.142061
-0.724257 0.379438 0.392027
-0.229237 1.047693 -0.214852
-0.002369 0.589086 -0.844979
-0.665070 0.253749 -0.823264
-0.496525 0.708870 -0.736900
-0.912333 0.118497 -0.318303
-0.853357 -0.208655 -0.464715
-0.586486 -0.230581 -0.790823
-0.002846 0.133707 -0.951115
-0.369294 -0.525663 -0.492549
-0.003239 -0.241495 -0.869870
-0.883013 -0.205715 0.039471
-0.892496 0.180225 0.106450
0.501923 0.707824 -0.736900
0.669515 0.252351 -0.823264
0.580030 -0.231803 -0.790824
0.856873 -0.210446 -0.464715
0.916533 0.116521 -0.328166
0.896836 0.188256 0.106418
0.896421 -0.207579 0.039471
0.372146 -0.526439 -0.492549
-0.290322 -0.639725 0.318782
0.292936 -0.640336 0.318782
0.827456 0.021694 0.354523
-0.813568 0.023412 0.354523
-0.614974 0.888209 -0.510562
-0.249084 0.976424 -0.580278
0.620747 0.886916 -0.510562
0.255083 0.975896 -0.580278
-0.744185 0.231363 0.432419
0.748583 0.229800 0.432419
-0.822943 0.512513 -0.557826
-0.872362 0.524514 -0.192120
0.827968 0.510785 -0.557826
0.877413 0.522681 -0.192120
-0.260421 -0.408415 0.584311
-0.339831 -0.713360 0.490542
0.332404 -0.714063 0.490542
-0.912641 -0.175953 -0.321673
-0.002874 0.106487 -0.109568
-0.358920 -0.059864 -0.824097
0.896434 -0.195538 0.172430
0.935608 -0.550322 0.097644
0.906338 -0.178021 -0.311779
-0.784234 -0.248764 -0.728186
-0.982219 -0.532044 -0.307503
-0.458082 -0.344375 -0.957112
0.352862 -0.060609 -0.824097
0.777739 -0.250229 -0.738071
0.441541 -0.345317 -0.957112
0.381604 -0.936346 0.160746
0.708092 -0.672763 0.352773
0.619443 -0.358369 0.486259
0.372582 -0.110666 0.470396
0.253633 -0.408954 0.584311
-0.388631 -0.109869 0.470396
-0.902773 -0.193654 0.172430
-0.626164 -0.357064 0.486259
-0.389496 -0.935538 0.160746
-0.715471 -0.671273 0.352773
-0.784796 -0.785606 0.083992
0.411288 -0.912296 -0.738617
-0.003761 -0.740273 -0.963324
0.540002 -0.692197 -0.913118
-0.853731 -0.565475 -0.703518
-0.547423 -0.691059 -0.913118
0.846613 -0.567112 -0.713376
-0.942701 -0.558244 0.097476
-0.419130 -0.911426 -0.738617
0.777167 -0.797123 0.083829
0.975170 -0.534093 -0.307503
0.796925 -0.810833 -0.301964
-0.804593 -0.808986 -0.311853
3 0 1 2
3 1 0 3
3 0 2 4
3 0 5 6
3 0 4 5
3 7 8 9
3 7 10 8
3 11 7 12
3 7 11 13
3 7 13 10
3 14 15 16
3 16 15 17
3 18 19 16
3 18 16 17
3 20 19 18
3 20 18 21
3 22 21 18
3 21 23 20
3 24 21 22
3 21 24 25
3 25 23 21
3 26 27 20
3 20 23 26
3 28 20 27
3 29 30 31
3 20 32 19
3 33 14 34
3 34 35 36
3 37 34 36
3 34 37 33
3 37 38 33
3 29 39 30
3 40 29 31
3 39 29 15
3 41 30 39
3 42 43 44
3 45 43 46
3 46 43 47
3 43 42 48
3 48 47 43
3 49 46 47
3 47 50 49
3 47 48 50
3 45 46 51
3 49 51 46
3 52 45 51
3 53 54 42
3 42 54 48
3 55 48 54
3 56 55 54
3 56 54 57
3 58 59 57
3 56 57 59
3 60 55 56
3 59 60 56
3 60 50 55
3 48 55 50
3 61 24 51
3 51 49 61
3 62 61 60
3 61 26 23
3 25 61 23
3 60 61 49
3 61 25 24
3 62 26 61
3 50 60 49
3 60 59 62
3 27 62 28
3 62 27 26
3 63 59 58
3 63 28 59
3 28 62 59
3 52 51 64
3 64 51 24
3 65 30 41
3 65 41 66
3 44 65 66
3 66 42 44
3 67 53 68
3 38 67 68
3 38 37 67
3 42 68 53
3 22 69 64
3 64 24 22
3 58 35 70
3 32 28 63
3 32 20 28
3 70 32 63
3 58 70 63
3 69 52 64
3 31 52 40
3 35 58 36
3 40 52 69
3 33 15 14
3 39 15 33
3 33 38 39
3 39 38 41
3 71 45 72
3 72 45 52
3 43 45 71
3 65 44 71
3 72 65 71
3 43 71 44
3 73 54 53
3 57 54 73
3 57 73 74
3 67 74 73
3 53 67 73
3 74 58 57
3 68 41 38
3 66 41 68
3 68 42 66
3 67 37 74
3 37 36 74
3 36 58 74
3 31 30 72
3 30 65 72
3 31 72 52
3 75 76 77
3 78 79 80
3 81 82 83
3 84 85 78
3 84 80 86
3 87 88 89
3 90 91 77
3 92 93 94
3 95 96 97
3 98 99 100
3 81 79 93
3 79 96 95
3 101 102 103
3 104 86 105
3 89 106 103
3 98 90 77
3 91 92 77
3 93 95 75
3 96 107 97
3 102 101 108
3 102 108 105
3 96 79 78
3 95 93 79
3 79 81 83
3 92 82 81
3 97 99 76
3 99 98 76
3 91 90 109
3 95 97 75
3 93 92 81
3 83 110 88
3 78 107 96
3 87 83 88
3 91 109 82
3 82 111 110
3 111 106 110
3 104 112 85
3 112 107 85
3 100 99 107
3 107 112 100
3 111 82 109
3 112 98 100
3 83 87 79
3 80 79 87
3 78 80 84
3 107 78 85
3 88 110 106
3 97 76 75
3 82 92 91
3 97 107 99
3 93 75 94
3 77 92 94
3 98 77 76
3 106 89 88
3 86 104 84
3 90 111 109
3 85 84 104
3 83 82 110
3 75 77 94
3 108 104 105
3 108 112 104
3 106 101 103
3 101 106 111
3 101 111 90
3 98 101 90
3 108 98 112
3 101 98 108
3 86 87 89
3 86 89 102
3 102 89 103
3 86 102 105
3 87 86 80
