ply
format ascii 1.0
comment Created by Blender 2.79 (sub 0) - www.blender.org, source file: ''
element vertex 14
property float x
property float y
property float z
element face 24
property list uchar uint vertex_indices
end_header
-1.000000 -1.000000 -1.000000
-1.000000 1.000000 -1.000000
0.000000 0.000000 -1.000000
1.000000 -1.000000 -1.000000
1.000000 1.000000 -1.000000
1.000000 0.000000 0.000000
1.000000 -1.000000 1.000000
1.000000 1.000000 1.000000
0.000000 0.000000 1.000000
0.000000 -1.000000 0.000000
0.000000 1.000000 0.000000
-1.000000 -1.000000 1.000000
-1.000000 1.000000 1.000000
-1.000000 0.000000 0.000000
3 0 1 2
3 3 4 5
3 6 7 8
3 0 3 9
3 4 1 10
3 11 12 13
3 12 1 13
3 1 0 13
3 0 11 13
3 1 4 2
3 4 3 2
3 3 0 2
3 4 7 5
3 7 6 5
3 6 3 5
3 7 12 8
3 12 11 8
3 11 6 8
3 3 6 9
3 6 11 9
3 11 0 9
3 1 12 10
3 12 7 10
3 7 4 10
