ply
format ascii 1.0
comment Created by Blender 2.79 (sub 0) - www.blender.org, source file: 'mario.blend'
element vertex 157
property float x
property float y
property float z
element face 190
property list uchar uint vertex_indices
end_header
-0.933269 0.557827 0.003791
-1.081885 0.252005 -0.455245
-0.923979 -0.012229 0.136556
-1.013492 -0.523715 -0.371293
-1.092128 -0.088759 -0.579382
-0.954174 -0.523525 0.064162
1.013102 -0.525837 -0.371293
0.924660 -0.014165 0.136556
0.953784 -0.525523 0.064162
1.092648 -0.091047 -0.579382
1.093005 0.249304 -0.445364
0.935143 0.555870 0.003791
0.688994 1.520976 0.334099
0.312746 0.944702 0.614983
0.935143 0.555870 0.003791
-0.310058 0.945355 0.614983
-0.002819 1.709036 0.570111
-0.685137 1.522415 0.334099
-0.933269 0.557826 0.003791
-1.220161 0.380269 -0.884916
-0.735410 0.720316 -1.196194
-0.478774 0.327439 -1.708619
-1.081885 0.252004 -0.455245
-1.318469 0.911300 -0.366289
-0.844892 -0.016044 -0.882876
-0.499013 -0.117426 -1.718705
-0.509050 -0.261321 -1.378778
0.480167 0.326434 -1.708619
0.499435 -0.118472 -1.718705
0.509170 -0.262388 -1.378778
1.221623 0.377711 -0.884916
0.737585 0.718774 -1.196194
0.845565 -0.017814 -0.882876
1.321043 0.908534 -0.366289
1.093005 0.249305 -0.445364
-0.933269 0.557826 0.003791
-0.379469 0.748814 0.586355
-0.646441 0.711159 0.990403
-0.310058 0.945355 0.614983
-0.685137 1.522416 0.334099
-0.408093 1.737260 -0.269795
0.935143 0.555870 0.003791
0.688994 1.520977 0.334099
0.412439 1.736401 -0.269795
0.312746 0.944702 0.614983
0.648599 0.709803 0.990403
0.381745 0.748016 0.586355
-0.002819 1.709036 0.570111
-0.003782 0.789153 1.221536
-0.509050 -0.261321 -1.378778
-0.005233 -0.596179 -1.205777
-0.351151 -0.532247 -1.519570
0.588205 -0.316882 -1.490076
0.854845 -0.596625 -1.215633
0.667061 -0.541427 -1.559539
0.756221 -0.367357 -0.809503
0.509170 -0.262388 -1.378778
0.350744 -0.532982 -1.519570
0.845565 -0.017814 -0.882876
0.459268 -0.749101 -0.895942
-0.588198 -0.315650 -1.490076
-0.667525 -0.540029 -1.559539
-0.756320 -0.365773 -0.809503
-0.855384 -0.594834 -1.215633
-0.460128 -0.748138 -0.895942
-0.578831 -0.811087 -1.255035
-0.844892 -0.016044 -0.882876
0.577800 -0.812297 -1.255036
0.242523 -0.027484 0.670310
0.331291 -0.227332 0.710826
0.825737 -0.070827 0.519961
0.746187 -0.507960 0.559705
0.301372 -0.475544 0.729397
0.291232 -0.717538 0.609688
-0.005219 -0.582985 0.704762
0.508467 -0.934422 0.144743
0.953784 -0.525523 0.064162
-0.292026 -0.716927 0.609689
-0.301659 -0.474912 0.729396
-0.746581 -0.506396 0.559705
-0.954174 -0.523525 0.064162
-0.509754 -0.933356 0.144743
-0.331058 -0.226639 0.710826
-0.825174 -0.069098 0.519962
-0.241871 -0.026977 0.670310
0.242523 -0.027484 0.670310
-0.004140 0.447691 0.671857
-0.004524 0.080489 0.694955
-0.656605 0.446455 0.493628
-0.241871 -0.026977 0.670310
-0.379469 0.748815 0.586355
-0.686679 0.049698 0.515406
0.381745 0.748017 0.586355
-0.933269 0.557827 0.003791
0.658208 0.445078 0.493628
0.687451 0.048259 0.515406
0.935143 0.555870 0.003791
0.291232 -0.717538 0.609688
-0.005219 -0.582985 0.704762
-0.292026 -0.716927 0.609689
-0.005694 -1.036176 0.219313
0.508467 -0.934422 0.144743
-0.509754 -0.933356 0.144743
-0.460128 -0.748138 -0.895942
0.459268 -0.749101 -0.895942
1.013102 -0.525837 -0.371293
0.953784 -0.525523 0.064162
-1.013492 -0.523715 -0.371293
-0.954174 -0.523525 0.064162
1.330063 0.081008 -0.670598
1.329666 -0.297824 -0.608455
0.845565 -0.017814 -0.882876
-0.844892 -0.016043 -0.882876
-1.329221 0.083792 -0.670598
-1.081885 0.252005 -0.455245
0.756221 -0.367357 -0.809503
1.093005 0.249304 -0.445364
1.092648 -0.091048 -0.579382
-1.092128 -0.088759 -0.579382
-1.329618 -0.295039 -0.608455
-0.005323 -0.682045 0.927904
-0.005328 -0.686797 1.254265
-0.400547 -0.498302 1.252798
-0.756320 -0.365773 -0.809503
0.400175 -0.533884 0.924669
0.301372 -0.475544 0.729397
-0.301659 -0.474912 0.729396
0.331291 -0.227332 0.710826
0.242523 -0.027484 0.670310
0.825737 -0.070827 0.519961
0.687451 0.048259 0.515406
-0.004442 0.159214 0.926084
0.400745 0.010175 0.929302
-0.004524 0.080489 0.694955
-0.241871 -0.026977 0.670310
-0.004436 0.164341 1.252868
0.400751 0.015332 1.256108
-0.400014 0.011014 0.929302
0.449897 -0.256947 0.927231
0.449913 -0.241970 1.254466
-0.004631 -0.021428 1.422667
0.400212 -0.499141 1.252798
-0.005056 -0.427206 1.424253
0.658208 0.445078 0.493628
0.924660 -0.014165 0.136556
0.935143 0.555870 0.003791
-0.005233 -0.596178 -1.205777
-0.923979 -0.012229 0.136556
-0.656605 0.446455 0.493628
-0.933269 0.557827 0.003791
-0.686679 0.049698 0.515406
-0.825174 -0.069098 0.519962
-0.400009 0.016171 1.256108
-0.449726 -0.256005 0.927231
-0.449710 -0.241028 1.254466
-0.400584 -0.533046 0.924669
-0.331058 -0.226639 0.710826
3 0 1 2
3 3 2 4
3 2 3 5
3 1 4 2
3 6 7 8
3 7 6 9
3 7 9 10
3 10 11 7
3 12 13 14
3 15 16 17
3 13 12 16
3 13 16 15
3 15 17 18
3 19 20 21
3 22 23 19
3 24 22 19
3 19 23 20
3 25 19 21
3 19 25 26
3 26 24 19
3 27 25 21
3 20 27 21
3 28 25 27
3 25 29 26
3 25 28 29
3 28 30 29
3 30 28 27
3 31 30 27
3 27 20 31
3 30 32 29
3 33 30 31
3 33 34 30
3 34 32 30
3 22 35 23
3 36 37 35
3 35 37 38
3 23 35 39
3 40 20 23
3 39 40 23
3 34 33 41
3 41 33 42
3 43 42 33
3 31 43 33
3 41 44 45
3 41 45 46
3 31 20 40
3 31 40 43
3 40 39 47
3 45 44 48
3 45 48 46
3 44 38 48
3 36 46 48
3 36 48 37
3 38 37 48
3 43 40 47
3 42 43 47
3 49 50 51
3 52 53 54
3 55 52 56
3 56 52 57
3 57 52 54
3 52 55 53
3 56 50 49
3 55 56 58
3 57 50 56
3 59 53 55
3 60 51 61
3 62 60 63
3 60 61 63
3 49 51 60
3 60 62 49
3 63 64 62
3 65 63 61
3 64 63 65
3 49 62 66
3 65 50 64
3 67 50 57
3 50 67 59
3 51 65 61
3 50 65 51
3 53 67 54
3 53 59 67
3 67 57 54
3 68 69 70
3 71 70 69
3 71 69 72
3 72 73 71
3 74 73 72
3 75 76 71
3 73 75 71
3 70 71 76
3 77 78 79
3 80 81 79
3 81 77 79
3 82 79 78
3 77 74 78
3 83 79 82
3 84 83 82
3 79 83 80
3 85 86 87
3 88 89 90
3 90 89 86
3 88 91 89
3 86 89 87
3 92 90 86
3 93 88 90
3 94 85 95
3 85 94 92
3 94 96 92
3 85 92 86
3 97 98 99
3 100 97 99
3 97 100 101
3 100 99 102
3 100 103 104
3 100 104 101
3 102 103 100
3 105 101 104
3 105 106 101
3 102 107 103
3 108 107 102
3 109 110 111
3 112 113 114
3 111 110 115
3 109 116 117
3 109 111 116
3 117 110 109
3 117 105 110
3 115 110 105
3 107 118 119
3 114 113 118
3 119 118 113
3 112 119 113
3 120 121 122
3 112 123 119
3 123 107 119
3 105 104 115
3 103 107 123
3 121 120 124
3 120 125 124
3 120 126 98
3 125 120 98
3 127 124 125
3 128 129 130
3 128 131 132
3 132 127 128
3 131 128 133
3 134 131 133
3 131 135 136
3 131 136 132
3 131 134 137
3 135 131 137
3 136 138 132
3 136 139 138
3 135 140 136
3 139 136 140
3 127 132 138
3 138 141 124
3 121 124 141
3 127 138 124
3 142 141 139
3 139 141 138
3 142 121 141
3 122 121 142
3 143 144 145
3 140 142 139
3 144 130 129
3 144 143 130
3 129 106 144
3 104 103 146
3 147 148 149
3 150 147 151
3 108 151 147
3 148 147 150
3 152 153 154
3 150 151 134
3 153 122 154
3 153 155 122
3 122 142 154
3 120 122 155
3 155 156 126
3 156 155 153
3 126 120 155
3 137 153 152
3 135 137 152
3 156 137 134
3 156 153 137
3 140 154 142
3 154 140 152
3 152 140 135
