ply
format ascii 1.0
comment Created by Blender 2.79 (sub 0) - www.blender.org, source file: ''
element vertex 34
property float x
property float y
property float z
element face 64
property list uchar uint vertex_indices
end_header
0.000000 -1.000000 0.000000
0.000000 -1.000000 -1.000000
0.195090 -1.000000 -0.980785
0.000000 1.000000 0.000000
0.382683 -1.000000 -0.923880
0.555570 -1.000000 -0.831470
0.707107 -1.000000 -0.707107
0.831470 -1.000000 -0.555570
0.923880 -1.000000 -0.382683
0.980785 -1.000000 -0.195090
1.000000 -1.000000 -0.000000
0.980785 -1.000000 0.195090
0.923880 -1.000000 0.382683
0.831470 -1.000000 0.555570
0.707107 -1.000000 0.707107
0.555570 -1.000000 0.831470
0.382683 -1.000000 0.923880
0.195090 -1.000000 0.980785
-0.000000 -1.000000 1.000000
-0.195091 -1.000000 0.980785
-0.382684 -1.000000 0.923879
-0.555571 -1.000000 0.831469
-0.707107 -1.000000 0.707106
-0.831470 -1.000000 0.555570
-0.923880 -1.000000 0.382683
-0.980785 -1.000000 0.195089
-1.000000 -1.000000 -0.000001
-0.980785 -1.000000 -0.195091
-0.923879 -1.000000 -0.382684
-0.831469 -1.000000 -0.555571
-0.707106 -1.000000 -0.707108
-0.555569 -1.000000 -0.831470
-0.382682 -1.000000 -0.923880
-0.195089 -1.000000 -0.980786
3 0 1 2
3 1 3 2
3 0 2 4
3 2 3 4
3 0 4 5
3 4 3 5
3 0 5 6
3 5 3 6
3 0 6 7
3 6 3 7
3 0 7 8
3 7 3 8
3 0 8 9
3 8 3 9
3 0 9 10
3 9 3 10
3 0 10 11
3 10 3 11
3 0 11 12
3 11 3 12
3 0 12 13
3 12 3 13
3 0 13 14
3 13 3 14
3 0 14 15
3 14 3 15
3 0 15 16
3 15 3 16
3 0 16 17
3 16 3 17
3 0 17 18
3 17 3 18
3 0 18 19
3 18 3 19
3 0 19 20
3 19 3 20
3 0 20 21
3 20 3 21
3 0 21 22
3 21 3 22
3 0 22 23
3 22 3 23
3 0 23 24
3 23 3 24
3 0 24 25
3 24 3 25
3 0 25 26
3 25 3 26
3 0 26 27
3 26 3 27
3 0 27 28
3 27 3 28
3 0 28 29
3 28 3 29
3 0 29 30
3 29 3 30
3 0 30 31
3 30 3 31
3 0 31 32
3 31 3 32
3 0 32 33
3 32 3 33
3 0 33 1
3 33 3 1
