ply
format ascii 1.0
comment Created by Blender 2.79 (sub 0) - www.blender.org, source file: 'mario.blend'
element vertex 41
property float x
property float y
property float z
element face 74
property list uchar uint vertex_indices
end_header
0.078379 0.081631 0.440921
0.250448 0.495035 0.035399
0.064217 0.330498 0.018078
0.300669 -0.353066 -0.009446
0.099894 -0.258717 0.254610
0.096129 -0.234268 -0.275880
0.080202 0.125812 -0.421456
-0.071451 0.408145 0.017508
-0.016020 -0.311332 -0.352160
-0.026998 -0.341418 0.333851
0.785427 0.220456 -0.558614
0.793294 0.532297 0.028475
0.794811 0.149090 0.599192
0.854067 -0.335883 0.376675
0.586391 -0.488957 0.053536
0.855603 -0.328809 0.128848
1.002767 -0.013684 -0.034347
0.702145 -0.239474 -0.344379
0.501180 -0.162736 -0.514604
0.272721 0.195689 -0.548371
0.587062 -0.511860 0.517808
0.275220 0.134616 0.574608
-0.054958 0.096339 0.567059
-0.240392 -0.003142 0.002293
-0.051568 0.147626 -0.543107
-0.195648 -0.109081 -0.246602
-0.659220 0.265449 -0.252486
-0.178914 0.203086 -0.194300
-0.674620 0.328040 0.111346
-0.193335 0.260853 0.119365
-0.697268 0.012390 0.287169
-0.222485 -0.010910 0.259690
-0.706226 -0.258008 0.020641
-0.220595 -0.246662 0.036783
-0.678681 -0.095785 -0.309912
-0.783296 0.205386 -0.182930
-0.796241 -0.038092 -0.228103
-0.818269 -0.149995 -0.001625
-0.812318 0.030309 0.176057
-0.796673 0.250547 0.059890
-0.085448 0.018603 -0.001483
3 0 1 2
3 3 4 5
3 1 6 2
3 7 0 2
3 6 7 2
3 8 6 5
3 4 8 5
3 0 9 4
3 10 1 11
3 1 12 11
3 13 14 15
3 16 15 17
3 10 18 19
3 18 10 17
3 12 20 13
3 18 14 3
3 14 17 15
3 17 14 18
3 17 10 16
3 13 15 16
3 12 13 16
3 11 12 16
3 10 11 16
3 20 14 13
3 21 20 12
3 1 21 12
3 19 1 10
3 9 22 23
3 8 9 23
3 24 8 23
3 7 24 23
3 22 7 23
3 9 0 22
3 8 4 9
3 6 8 24
3 7 6 24
3 0 7 22
3 19 6 1
3 1 0 21
3 20 4 3
3 4 21 0
3 20 3 14
3 21 4 20
3 5 19 18
3 19 5 6
3 5 18 3
3 25 26 27
3 27 28 29
3 29 30 31
3 31 32 33
3 33 34 25
3 35 34 36
3 36 32 37
3 37 30 38
3 38 28 39
3 39 26 35
3 31 33 40
3 29 31 40
3 27 29 40
3 25 27 40
3 33 25 40
3 28 26 39
3 30 28 38
3 32 30 37
3 34 32 36
3 26 34 35
3 33 32 34
3 31 30 32
3 29 28 30
3 27 26 28
3 25 34 26
3 36 37 38
3 36 38 35
3 35 38 39
