ply
format ascii 1.0
comment Created by Blender 2.79 (sub 0) - www.blender.org, source file: 'mario.blend'
element vertex 17
property float x
property float y
property float z
element face 30
property list uchar uint vertex_indices
end_header
-0.390849 0.392820 0.136104
0.002642 0.404059 0.445062
-0.003240 0.527277 -0.001159
-0.239232 0.391817 -0.358739
0.235362 0.397816 -0.356368
0.390260 0.395556 0.130713
0.237489 -0.554555 -0.359845
0.392348 -0.556028 0.137045
-0.004007 -0.771528 0.003055
-0.237105 -0.560533 -0.362247
-0.388722 -0.559518 0.132596
-0.005245 -0.557282 0.452112
-0.299456 0.206269 -0.453428
-0.491449 0.207963 0.170064
0.303660 0.211231 -0.450171
0.497195 0.209785 0.175924
0.000348 0.214852 0.559280
3 0 1 2
3 3 0 2
3 4 3 2
3 5 4 2
3 6 7 8
3 9 6 8
3 10 9 8
3 11 10 8
3 7 11 8
3 12 13 3
3 14 12 4
3 15 14 4
3 16 15 1
3 13 16 1
3 1 5 2
3 11 15 16
3 6 14 15
3 9 12 14
3 9 13 12
3 11 16 13
3 11 13 10
3 13 9 10
3 9 14 6
3 6 15 7
3 15 11 7
3 13 1 0
3 1 15 5
3 15 4 5
3 4 12 3
3 3 13 0
