ply
format ascii 1.0
comment Created by Blender 2.79 (sub 0) - www.blender.org, source file: 'mario.blend'
element vertex 20
property float x
property float y
property float z
element face 36
property list uchar uint vertex_indices
end_header
0.260566 -0.124664 -0.284319
-0.203141 0.337291 -0.223941
0.300792 0.212854 -0.178463
-0.206451 0.336746 0.217515
0.296523 0.214831 0.181506
-0.261974 -0.081356 0.366068
0.249631 -0.123742 0.301178
-0.288995 -0.354533 -0.009080
0.230631 -0.337380 0.004576
-0.254411 -0.092057 -0.366061
-0.363445 0.230212 -0.143776
-0.393565 -0.022270 -0.225547
-0.409015 -0.186345 -0.004875
-0.396874 -0.022815 0.215902
-0.358831 0.233592 0.134559
0.353234 -0.108941 -0.196150
0.339420 -0.255517 -0.001392
0.381151 0.124624 -0.119743
0.375297 0.127692 0.127527
0.349456 -0.108220 0.204516
3 0 1 2
3 2 3 4
3 4 5 6
3 6 7 8
3 8 9 0
3 10 9 11
3 11 7 12
3 12 5 13
3 13 3 14
3 14 1 10
3 8 15 16
3 15 2 17
3 2 18 17
3 18 6 19
3 6 16 19
3 6 8 16
3 4 6 18
3 2 4 18
3 0 2 15
3 8 0 15
3 3 1 14
3 5 3 13
3 7 5 12
3 9 7 11
3 1 9 10
3 8 7 9
3 6 5 7
3 4 3 5
3 2 1 3
3 0 9 1
3 11 14 10
3 15 17 16
3 16 17 18
3 16 18 19
3 14 11 12
3 14 12 13
